<svg width="100" height="100"><g id="layer1"><g transform="translate(50,50)"><path d="M174.49623217169938,38.93622881286137L166.7421441348706,50.9116385593079L166.89779550557796,115.5721024346858L137.85672074048125,117.46744010547991L137.0789821977014,147.52541200375708L113.3259534970748,146.07153755352192L83.1480779955782,137.35990281036356L30.806605101101013,148.90614156861557L-17.409882851723523,136.70771450993198L-75.66378381828326,141.70300510733796L-92.9775953183671,133.6125450424006L-89.49294786630708,102.71402769397537L-95.7243511887209,83.58935190617922L-90.06295610395682,59.92994750967773L-55.35358991003159,44.54858781324583L-51.62770040444957,26.090785435051657L-37.25462983434409,11.031019013360492L-33.89894681084479,-22.170203442510683L-1.5468602662913327,-21.54580482147867L68.76074078900638,-33.33889072613965L71.10485781733587,-44.76877030695323L53.86890559281892,-58.58828134884243L50.42747398548454,-88.66021411053953L104.87322601016785,-87.11511150980368L133.50379350681033,-85.48195075661351L151.9249762147956,-56.23640673192858L122.12246618991412,-49.255648270700476L131.25871375562565,-7.223052484172513L142.7856489311962,-17.906490459208726L165.27222286687174,11.6666388992453L154.63835010636467,24.00288987068052Z" fill="#000"></path></g></g></svg>