<svg width="100" height="100"><g id="layer1"><g transform="translate(50,50)"><path d="M30.326771993361035,-15.073449437419185L37.11414993012659,-21.87068227386044L69.63892300377847,-30.794799349387176L78.17523053994591,-17.5484288308362L86.92721054753565,-21.528579172692844L92.35051398944051,-2.8150170781009365L121.70197322043168,-1.1573023076489335L128.9610250359874,28.2501627785241L115.5327172947982,59.18603531624831L123.40031907419689,61.0813986229623L154.1678293073419,94.18176533060614L132.11626304350648,93.37857452005846L124.6338330654471,83.89183439692715L90.21631870269994,65.18604081196827L65.06403898705685,87.11648047425842L35.70527125157605,71.54783069276891L37.18268759606508,97.2927222931321L9.614292860143905,90.11969827031135L8.868503937446803,97.89136239069921L-3.4759523856118903,104.81959668629861L-14.179083249659016,98.97436344897142L-49.49098205838527,100.69926113214751L-45.27964899886865,82.05033953412203L-59.62404972160584,77.3062851576833L-57.33262438666861,61.42777004886011L-40.90340227831257,38.31562090096122L-6.2926485710304405,34.92379386634275L15.958594048086525,44.16320026628091L43.32422822286753,41.94169666583184L35.61048538606701,23.10617645768798L46.782140605453606,-2.6767203746858286Z" fill="#000"></path></g></g></svg>