<svg width="100" height="100"><g id="layer1"><g transform="translate(50,50)"><path d="M17.07132316572097,186.0486408895813L-13.696187067424034,152.94827418193745L-21.563788846822717,151.05291087522346L-8.135481105633517,120.11703833749925L-15.394532921189239,90.70957325132622L-39.698223116814916,74.35375746703357L-19.35059647664093,34.00654511890025L-24.277735474544897,12.15896565944422L-2.237637460224505,13.662840617413167L9.057205414759665,-0.26185214491852093L23.565468259759655,4.368819260183955L24.39883038647895,-10.835387072133017L7.802194306732417,-26.535343106879736L11.625942441249208,-48.55250616639387L-2.562133100705978,-58.532709982129745L-0.7859548687883944,-89.66439413631451L14.022008826359524,-108.38532133787521L42.32504861444613,-126.81207634496968L47.50266814155839,-114.42316254573234L73.21412206611058,-116.14347979384183L115.68255208960545,-102.43489311085432L141.25652524117686,-80.61326999963785L151.45563348857831,-63.74436714843614L149.29097463118887,-59.20936052425532L105.18294575763139,-39.35189257109596L77.54202317096133,-8.643386481431662L88.4282853968325,39.33973098892602L62.755534166262805,48.09824564255541L67.21073821364917,81.67628260451602L66.03157965558421,109.82683358786744L98.88030719041126,116.25712909942376L94.72018659087189,134.14072164217941L110.23022031791334,160.92679700936424L120.80063369238997,191.6449716471834L117.85092324001016,208.02021243263152L125.08670208117474,225.57233086052292L102.83593155067138,221.77207095528138L86.98556830720554,241.94842458423227L70.95578226930957,221.08422365887964L46.982082525450096,221.98581957748684L36.58507106103934,200.00012255572074L23.12757670292558,198.4384988099191Z" fill="#000"></path></g></g></svg>