<svg width="100" height="100"><g id="layer1"><g transform="translate(50,50)"><path d="M30.971483760407864,-103.20829439075897L55.12126886704209,-93.43520062243624L63.568915568826924,-32.223130691665574L119.99865419656999,-16.234412814548705L147.37526634980895,-12.24658845855447L147.64825914297398,1.8009148270066362L131.19475589176727,1.8062888544081943L132.17093658956583,24.02532669629727L186.6999214925563,25.025559639325365L189.47000163756456,36.15577210803167L149.78232338119778,69.83132958083297L138.8324509383965,91.32648891683493L129.22970862923103,127.22979424988443L139.19942122852808,130.55978897774185L113.31005828170964,165.833919325014L107.40507757017622,194.77495503881073L92.6882290360445,188.57603273344284L63.50717606057515,164.71806678561552L19.03955126443907,187.2278151040082L4.602552353004285,186.1084036182001L-2.6332264881602896,168.5562851903087L0.31648396421951475,152.1810444048606L-10.253929410257115,121.46286976704141L-25.76396313729856,94.67679439985659L-21.603842537759192,76.79320185710094L-54.45257007258624,70.36290634554462L-53.273411514521285,42.21235536219319L-57.728615561907645,8.634318400232587L-32.05586433133794,-0.12419625339680351L-42.94212655720912,-48.10731372375449L-15.301203970539063,-78.81581981341878L28.806824903018423,-98.67328776657814Z" fill="#000"></path></g></g></svg>