<svg width="100" height="100"><g id="layer1"><g transform="translate(50,50)"><path d="M144.14548795698283,71.3588340318529L160.6008565690754,83.75556309458625L149.4292013496888,109.53845992696006L157.14294418648933,128.37398013510392L129.77731001170832,130.595483735553L107.52606739259136,121.35607733561483L72.91531368530923,124.7479043702333L56.486091576953186,147.8600535181322L7.429899019363802,130.66320665027888L-12.427983045970905,115.72986770809803L-1.7941102854638302,103.3936167366628L-24.28068422113938,73.82048737820878L-35.807619396709924,84.503925353245L-44.94386696242145,42.47132956671703L-15.141356937539967,35.490571105488925L-33.56253964552525,6.245027080803993L-62.19310714216772,4.611866327613825L-47.986026032951486,-20.979350720954244L-9.375931798440433,-32.28257549791306L-0.10852615990370396,-40.313627337425714L20.812818645088555,-33.05614097297075L69.78477900812504,-29.41862041654531L72.29332457066994,-45.29971907072468L89.42482682392074,-49.536812752703554L102.52281708869486,-32.7486932722677L106.2965678358778,-6.866859016910894L122.73533595365734,45.12418926265673L119.41850655651797,59.54096424370073Z" fill="#000"></path></g></g></svg>