<svg width="100" height="100"><g id="layer1"><g transform="translate(50,50)"><path d="M-32.803905773125734,-78.53025006788084L-32.05811685042863,-86.30191418826871L-4.489722114507458,-79.12889016544796L-5.967138458996487,-104.87378176581115L23.39162927648431,-89.30513198432163L55.642623603809625,-77.58560839243L77.35177848265812,-52.04086437349906L75.66558265912681,-43.69641070210491L90.90579999333204,-18.58910961142101L85.02500710380991,-0.06577028354513459L53.627744947138126,-1.0499691001023166L69.6168465651026,28.388577800084022L139.13074038123523,83.4563347939984L164.50217726510164,92.14849099163257L160.8874839410746,102.58952280237281L170.70951396294186,129.2571806915803L156.64193876449644,163.03061746615276L99.9986480424268,176.90424753112893L91.97507737195338,168.20021108633955L72.8916108842277,110.82683465295122L49.625051522354624,112.47971161355963L9.90968181610151,132.33948263179627L-11.64300995020676,139.008670859228L-25.775168743952236,130.5540647306916L-41.45070180861512,131.78013398643816L-46.70019540435533,116.58878943529271L-35.18471198761472,90.55780150648206L-16.436293402653973,18.622636191023048L-8.826970590696874,5.697998595016543L-8.223787306120357,-20.330140038291574L-16.361537822951504,-19.06339474086417L-22.280411923311476,-57.20531553553883L-34.262712948038825,-55.84397424069175Z" fill="#000"></path></g></g></svg>