<svg width="100" height="100"><g id="layer1"><g transform="translate(50,50)"><path d="M-77.37101162366889,-31.59921739170386L-64.14143133320613,-38.5530037197459L-56.85512388752977,-57.39679270092165L-39.851325017742056,-65.8322941774095L-29.37847137780045,-95.31425409280928L-5.981236937350332,-81.40563833943452L1.711328133547795,-83.69588041378302L22.8031651175952,-60.948227110900916L40.049350424287695,-67.8082178937766L39.61329504653986,-85.9977974449721L51.50123269994583,-100.32095509876672L84.50761535778656,-96.92138756373606L109.52812964850818,-114.85043267744186L68.8926032026975,-138.88833909198001L84.19596534086304,-157.0414368283382L112.38735229719532,-149.4717506463494L134.47121914044328,-161.5616600778303L129.23521970201182,-129.55948965725838L138.64128234000964,-116.25308248915826L177.17225316006807,-89.21508902203641L194.9649590008048,-88.1612974016025L185.87284090789763,-43.66758051587385L165.0050530068911,-32.69668224095949L152.1810734321407,10.455540323047899L152.99901945131205,26.485969267916516L163.82365001998187,51.48153011102113L135.52061023189526,69.9082851181156L120.71264653674734,88.6292123196763L118.93646830482976,119.76089647386107L133.12454384678495,129.74110028959694L129.30079571226815,151.75826334911108L145.8974317920147,167.4582193838578L145.0640696652954,182.66242571617477L130.5558068202954,178.0317543110723L119.26096394531123,191.95644707340398L97.22086593099084,190.45257211543503L102.1480049288948,212.30015157489106L81.80037828872082,252.6473639230244L106.1040684843465,269.00317970731703L76.75260925335533,267.345464936865L71.32930581145047,248.63190284227312L62.57732580386073,252.61205318412976L54.04101826769329,239.3656826655788L21.516245194041403,248.28979974110553L14.728867257275851,255.08703257754678L-9.998114143189014,243.2691627893946L-6.681284746049641,228.8523878083506L-23.120052863829187,176.861339528783L-26.893803611012117,150.97950527342618L-39.99179387578624,134.19138579299033L-111.27721615950941,69.81260954824393L-88.42854006122798,66.40803262358531L-71.8446219361067,43.966837900006794L-61.26495107025039,19.08034943821258L-62.9823347274978,0.43347942376567516Z" fill="#000"></path></g></g></svg>