<svg width="100" height="100"><g id="layer1"><g transform="translate(50,50)"><path d="M219.35374081351983,130.34210531495046L202.22223856026903,134.57919899692934L199.71369299772414,150.4602976511087L150.74173263468765,146.82277709468326L129.8203878296954,139.5652907302283L120.55298219115866,147.59634256974095L81.94288795664761,158.89956734669977L67.73580684743138,184.49078439526784L13.290054822748061,182.945681794532L-21.16813884333169,177.23738356336253L-60.02759979500115,143.4645737741521L-65.69731110609064,114.61553186633682L-82.5357992943791,84.79294839258364L-79.1047453964893,73.44984208390815L-77.84302308382757,57.02804952580482L-105.40386886189299,25.266784414066933L-74.97115212467179,-32.76486230074079L-73.60480771406219,-43.92290505190613L2.640486974571104,-39.72899565025L4.3400461647470365,-61.798980805819156L12.012126654808526,-76.69501204576227L36.859368635414285,-80.73906277171045L39.138959697003884,-113.84075629725703L35.00259862491657,-137.1922823444911L77.5049575090452,-133.96683185329312L82.46539704285169,-127.44345483501093L65.81810782916364,-116.37321015995985L81.49792175838957,-85.37388336077856L75.87003042957804,-67.40227069388493L81.98687604413135,-47.26769683283055L129.09375253006874,-27.620088435549405L165.76504289186778,-28.600939204916358L181.9745230656372,-35.44849786974373L196.36319996180828,-3.4158010542741977L198.0805836190557,15.231068960172706L187.50091275319937,40.11755742196692L170.9169946280781,62.55875214554544L148.06831852979667,65.96332907020405Z" fill="#000"></path></g></g></svg>