<svg width="100" height="100"><g id="layer1"><g transform="translate(50,50)"><path d="M117.73269806159806,-127.4208251984528L114.30164416370826,-116.07771888977732L131.14013235199673,-86.25513541602413L136.8098436630862,-57.40609350820887L175.66930461475567,-23.633283718998428L210.12749828083543,-17.924985487828963L213.5689298881698,12.146947273868136L230.80488211268676,25.966458315757336L228.46076508435726,37.39633789657091L158.15316402905955,49.1894238012319L125.8010774845061,48.56502518019988L122.4453944610068,81.76624763607106L108.07232389090132,96.82601405776222L104.3464343853193,115.2838164359564L69.63706819139406,130.6651761323883L63.97567310662998,154.32458052888978L70.20707642904381,173.44925631668593L66.72242897698379,204.34777366511116L61.72137199665667,230.86971689396887L47.94668424681004,249.95299259938474L36.49185367739119,249.38242215960054L-2.4804651495323924,285.871364337625L-46.81191703896911,296.6352798202861L-70.93538695915049,265.0834933317383L-66.1699898996194,254.24904704325309L-68.74096393976652,222.05094193697732L-56.284688454619754,188.63489235454472L-37.71387248591418,181.4701785029465L-0.6129293964040698,134.19322728269617L32.9564734482301,97.17194648477016L-14.79428458003531,67.39016671666468L-56.826358749953215,74.70510419528L-53.57031314660344,39.36259686091216L-33.92884742787646,-37.0549563599634L-9.981370340181456,-25.87742179443012L-6.842188646372961,-50.988695341162384L6.294236714384169,-86.57086139071907L-0.5739838323170261,-115.58915320404049L-30.25197209685939,-104.78634247250739L-38.357598819380655,-114.92978034715634L-30.15230118623731,-125.82319922286842L-1.4737635547717218,-139.75545937288553L12.423499283100682,-156.57256925507681L25.46661508726538,-159.93618997310114L71.41501005708778,-136.02795752520615Z" fill="#000"></path></g></g></svg>