<svg width="100" height="100"><g id="layer1"><g transform="translate(50,50)"><path d="M230.71781074317187,116.54670541312953L176.11847273176318,152.64049363700906L147.96290341811618,108.58331401657779L106.18846169755852,137.7332929425611L80.24731451359548,131.77078612205514L67.41234143968177,135.829567586552L60.73090546153253,89.49394884650246L24.26739530366831,89.7722853252344L-2.913184638477105,102.13540849015408L-24.273012933517748,105.63043552798626L-90.42800778790479,141.82545940401906L-91.25901650707601,167.41773837761139L-127.31433263651707,162.4005386705394L-132.99551128275198,154.0996107900428L-147.01685205062677,159.88869025820168L-173.37729475112792,138.68004931714677L-193.4697678362354,110.64707770421228L-210.1189445905402,117.00799603981432L-214.34307220960545,93.9128740735905L-194.04814623437778,77.26631835644366L-186.03315371715144,81.45960774940613L-171.6939347182779,66.53797094007314L-172.93248038998718,57.62289203434193L-153.6510951996388,36.7105624734686L-109.31964331020208,25.946646990807494L-70.3473244832785,-10.54229518721695L-58.89249391385965,-9.971724747432745L-45.11780616401302,-29.055000452848617L-40.1167491836859,-55.576943681706325L-22.802937683602067,-47.486483616768965L35.45096328295767,-52.48177421417495L83.66745123578221,-40.283347155491356L136.0089241302594,-51.82958591374336L166.186799631756,-43.117951170585L189.9398283323826,-41.66407672034984L204.22027079525287,-34.0823210531089L218.373721235017,-42.91352029173868L253.00994435808389,-9.098525620429427L280.0203313518323,66.76515483250841L265.3748052180017,88.81873415749578L229.66161994890354,109.5508183734928Z" fill="#000"></path></g></g></svg>