<svg width="100" height="100"><g id="layer1"><g transform="translate(50,50)"><path d="M-55.619435623393656,-23.279966396148666L-54.84169708061381,-53.33793829442584L-25.800622315517103,-55.233275965219946L-25.95627368622445,-119.89373984059785L-18.202185649395688,-131.86914958704438L30.854006908193696,-114.67230271919107L28.562581573256466,-98.79378761036787L42.90698229599366,-94.04973323392915L38.69564923647704,-75.40081163590366L74.0075480452033,-77.12570931907976L84.71067890925042,-71.28047608175257L97.05513523230911,-78.20871037735196L95.59632805739602,-55.52243455016287L107.57862908212337,-56.88377584500995L113.49750318248334,-18.74185505033529L121.63525369931449,-20.008600347762695L121.03207041473797,6.019538285545423L113.42274760278087,18.944175881551928L94.67432901782013,90.87934119701094L83.15884560107952,116.91032912582159L88.40833919681972,132.10167367696704L104.08387226148261,130.8756044212205L118.21603105522809,139.33021054975688L116.18293919023927,148.21665063433466L131.95722836797722,209.13165820471477L120.36157970304339,236.70024928922066L63.8540223828968,231.76732958341017L61.87070970681816,201.1450449937838L32.29944950713616,201.5699604444526L35.08113633746689,186.20710494779632L13.017471861319791,172.75121557925013L-15.346796237747185,146.47636893524032L-14.841453212604392,134.9308157373307L-15.897644006872724,127.93492869769398L19.81554126222545,107.20284448169696L34.46106739605602,85.14926515670959L7.450680402307626,9.285584703771747L-27.18554272075926,-24.529409967537504L-41.33899316052339,-15.698210728907725Z" fill="#000"></path></g></g></svg>