<svg width="100" height="100"><g id="layer1"><g transform="translate(50,50)"><path d="M-116.66963918751935,129.40579743430135L-102.60206398907394,95.63236065972887L-112.42409401094119,68.9647027705214L-108.80940068691416,58.52367095978116L-134.18083757078057,49.83151476214698L-203.6947313869132,-5.236242231767392L-219.68383300487767,-34.67478913195373L-188.28657084820588,-33.69059031539655L-182.40577795868376,-52.21392964327242L-197.64599529288898,-77.32123073395633L-195.95979946935768,-85.66568440535048L-217.66895434820617,-111.21042842428142L-249.9199486755315,-122.92995201617305L-224.7676689598884,-144.8603916784632L-190.35015459714123,-126.15459809350432L-182.86772461908186,-116.667857970373L-160.81615835524644,-115.86466715982533L-154.75990481804183,-103.47480923948751L-141.30241045992807,-101.91318549368589L-130.90539899551732,-79.92748847191979L-106.93169925165785,-80.82908439052699L-90.90191321376187,-59.96488346517435L-75.05154997029604,-80.14123709412524L-52.80077943979268,-76.3409771888837L-38.36378052835789,-75.22156570307561L6.103844267778186,-97.73131402146828L35.28489724324754,-73.87334807364095L50.001745777379256,-67.67442576827307L73.05874140722881,-63.17214840394445L79.11783517286312,-76.02974511186767L105.3583846350084,-92.30178840227018L141.30349639970154,-76.36182734879549L147.28793031800888,-78.15345894912025L174.40562303005572,-54.60894798557274L196.50808507961847,-49.224544902011985L201.58421789983186,-23.65467763777997L212.54098314065777,-22.207915167164174L206.6593602723442,-60.79293836170109L232.33426956239055,-45.58779482191312L255.20484672762177,-10.838611703671631L290.39649237332924,-4.7762359846092295L302.7366824878154,15.422284654618124L281.38254972239156,25.58365251981013L256.66735421128396,89.20235489371407L271.92766444098015,113.8032249789394L257.33509645109734,135.47054450302676L233.73587540965673,135.29854647698812L207.72963747553513,154.50351043620321L189.50109822369268,174.69775400290382L204.39071887499085,204.32901960150048L191.687769993845,223.67712875737925L173.31429837392352,221.3387796405732L155.28019291221062,229.49932480342977L138.1831899590652,265.4260632513906L129.56687794768368,272.8551961372723L115.1891171532443,310.7806694939936L94.20326452806694,291.1027658228704L98.14891911411905,246.0869525832386L110.39650292740407,233.82175577206363L103.40706527975635,217.99228442582535L104.42085620927173,198.84136869000213L87.945085409272,202.46255822958483L79.69885714497286,187.8479781099595L42.79745629641184,208.9392744521174L41.093938981739484,194.2331476682739L23.16501634103406,174.61765094660223L17.18370259605581,152.2147685916425L-32.62478313775864,168.4491883777373L-82.66125559235661,166.0026255947887L-79.93343058474784,134.55012465156324L-92.7636573115924,142.2320709584019Z" fill="#000"></path></g></g></svg>